#VRML V2.0 utf8
# APPROXIMATE ENVELOPE - NOT A MANUFACTURER MODEL
Shape { appearance Appearance { material Material { diffuseColor 0.7 0.35 0.08 } } geometry IndexedFaceSet { coord Coordinate { point [ -1.4074803149606299 -0.38976377952755903 0.0,12.03740157480315 -0.38976377952755903 0.0,-1.4074803149606299 3.5118110236220472 0.0,12.03740157480315 3.5118110236220472 0.0,-1.4074803149606299 -0.38976377952755903 4.051181102362205,12.03740157480315 -0.38976377952755903 4.051181102362205,-1.4074803149606299 3.5118110236220472 4.051181102362205,12.03740157480315 3.5118110236220472 4.051181102362205 ] } coordIndex [ 0,2,3,1,-1,4,5,7,6,-1,0,1,5,4,-1,2,6,7,3,-1,0,4,6,2,-1,1,3,7,5,-1 ] } }