#VRML V2.0 utf8
# APPROXIMATE ENVELOPE - NOT A MANUFACTURER MODEL
Shape { appearance Appearance { material Material { diffuseColor 0.7 0.35 0.08 } } geometry IndexedFaceSet { coord Coordinate { point [ -0.984251968503937 -0.984251968503937 0.0,0.984251968503937 -0.984251968503937 0.0,-0.984251968503937 0.984251968503937 0.0,0.984251968503937 0.984251968503937 0.0,-0.984251968503937 -0.984251968503937 1.968503937007874,0.984251968503937 -0.984251968503937 1.968503937007874,-0.984251968503937 0.984251968503937 1.968503937007874,0.984251968503937 0.984251968503937 1.968503937007874 ] } coordIndex [ 0,2,3,1,-1,4,5,7,6,-1,0,1,5,4,-1,2,6,7,3,-1,0,4,6,2,-1,1,3,7,5,-1 ] } }